<svg id="logo" xmlns="http://www.w3.org/2000/svg" viewBox="0 0 236 226.9">
  <path class="pebble" d="M168.4 222.1c-49 23-137.3-40.8-160.3-89.7s5.3-97.6 54.2-120.6C78.1 4.2 95.4.2 112.8 0c32.6 0 62.4 15.4 77.7 47.8 23 49 26.9 151.3-22.1 174.3z"/>
  <path d="M57.4 50.8h31.4c10.5 0 28.2 1.8 37.8 21.2l46.8 98.5c-4.7 4.7-12.3 4.7-17 0-.5-.5-.9-1-1.3-1.6l-40.3-57.2c-5.7-8.1-17-10.1-25.1-4.3-.7.5-1.3 1-1.9 1.6l-11.5 10.7c-4.9 4.6-12.6 4.5-17.3-.3l-1.2-1.2L68.4 104c7.4-10 7.9-23.6 1.2-34.1L57.4 50.8zm18.2 103c-1.5 2.8-2.2 6-1.9 9.2.4 6.4 8.5 12 8.5 12l29.5-49.9c1.3-2.5 1.3-5.5-.2-8-6.3-9.9-15.1-6.8-15.1-6.8l-20.8 43.5zM217.6 226.9h-2v-11h-3.7v-1.5h9.5v1.6h-3.8zM236 226.9h-1.9v-10l-4 10h-1.4l-4-10v10h-1.8v-12.5h2.8l3.8 9.5 3.8-9.5h2.7z"/>
</svg>
